<?xml version="1.0" standalone="no"?>
<!DOCTYPE svg PUBLIC "-//W3C//DTD SVG 20010904//EN"
 "http://www.w3.org/TR/2001/REC-SVG-20010904/DTD/svg10.dtd">
<svg version="1.0" class="bi bi-book" xmlns="http://www.w3.org/2000/svg"
 width="820.000000px" height="550.000000px" viewBox="0 0 820.000000 550.000000"
 preserveAspectRatio="xMidYMid meet">

<g transform="translate(0.000000,550.000000) scale(0.100000,-0.100000)"
fill="currentColor" stroke="none">
<path d="M1993 4777 l-61 -102 37 -3 38 -3 5 -147 c3 -81 5 -994 4 -2029 l-1
-1883 2032 0 2032 0 3 -45 3 -45 103 62 c56 34 102 65 102 69 0 6 -174 115
-202 127 -4 2 -8 -15 -8 -37 l0 -41 -1990 0 -1990 0 2 1983 3 1982 42 3 42 3
-60 99 c-33 55 -63 102 -67 104 -5 3 -35 -41 -69 -97z"/>
<path d="M3952 3998 c-9 -9 -12 -379 -12 -1605 0 -1564 0 -1592 19 -1603 27
-14 675 -14 702 0 19 11 19 39 19 1603 0 1226 -3 1596 -12 1605 -17 17 -699
17 -716 0z"/>
<path d="M4832 3564 l-22 -15 0 -1368 c0 -1313 1 -1369 18 -1384 17 -15 56
-17 359 -17 317 0 341 1 356 18 16 17 17 127 17 1380 0 1349 0 1362 -20 1382
-19 19 -33 20 -353 20 -285 0 -336 -2 -355 -16z"/>
<path d="M3076 3118 c-14 -20 -16 -146 -16 -1158 0 -1012 2 -1138 16 -1158
l15 -22 343 0 c319 0 344 1 359 18 16 17 17 112 17 1165 0 1028 -2 1147 -16
1161 -13 14 -60 16 -359 16 l-344 0 -15 -22z"/>
<path d="M2206 2384 c-14 -14 -16 -100 -16 -794 0 -694 2 -780 16 -794 13 -14
59 -16 350 -16 212 0 342 4 355 10 19 10 19 30 19 798 0 600 -3 791 -12 800
-9 9 -101 12 -354 12 -298 0 -345 -2 -358 -16z"/>
</g>
</svg>
